<svg width="1799" height="1107" viewBox="0 0 1799 1107" fill="none" xmlns="http://www.w3.org/2000/svg">
<path d="M40.8 497C40.8 404.2 66.6667 332.467 118.4 281.8C170.667 230.6 245.6 205 343.2 205C405.067 205 456.8 214.067 498.4 232.2V384.2H461.6L424 265C397.333 260.733 374.933 258.6 356.8 258.6C288.533 258.6 235.467 278.867 197.6 319.4C160.267 359.933 141.6 419.133 141.6 497C141.6 575.4 158.667 634.867 192.8 675.4C226.933 715.4 276.267 735.4 340.8 735.4C364.267 735.4 385.333 733.533 404 729.8V562.6L312.8 545.8V517.8H561.6V545.8L502.4 562.6V749.8C453.333 775.933 396 789 330.4 789C236.533 789 164.8 763.667 115.2 713C65.6 662.333 40.8 590.333 40.8 497ZM910.869 205C972.735 205 1024.74 214.333 1066.87 233V384.2H1030.07L993.269 265.8C972.469 261 948.469 258.6 921.269 258.6C788.469 258.6 722.069 338.067 722.069 497C722.069 655.933 783.135 735.4 905.269 735.4C923.402 735.4 939.669 734.867 954.069 733.8C968.469 732.733 981.535 731.133 993.269 729L1039.67 602.6H1076.47L1070.87 753.8C1063.4 758.067 1052.74 762.333 1038.87 766.6C1025 770.867 1009.8 774.6 993.269 777.8C977.269 781 960.469 783.667 942.869 785.8C925.802 787.933 910.069 789 895.669 789C805.535 789 737.269 763.933 690.869 713.8C644.469 663.667 621.269 591.4 621.269 497C621.269 402.6 645.269 330.333 693.269 280.2C741.802 230.067 814.335 205 910.869 205ZM1152.39 777V740.2L1225.99 722.6V271.4L1152.39 253.8V217H1281.99L1615.59 613V271.4L1541.99 253.8V217H1747.59V253.8L1673.99 271.4V777H1625.99L1281.99 371.4V722.6L1355.59 740.2V777H1152.39Z" fill="black"/>
<path d="M682.8 906.2C676.4 902.6 668.2 900.8 658.2 900.8C648.2 900.8 639.7 904.2 632.7 911C631.9 913.4 631.5 916.7 631.5 920.9C631.5 928.1 635.2 933.8 642.6 938L680.1 959.6C697.1 969.6 705.6 981.6 705.6 995.6C705.6 1007.2 701.1 1016.1 692.1 1022.3C683.1 1028.5 670.8 1031.6 655.2 1031.6C639.8 1031.6 624.4 1029 609 1023.8C609 1020.8 610 1013.5 612 1001.9C614 990.3 615.1 984.5 615.3 984.5C622.7 984.5 626.4 985.9 626.4 988.7V1010.3C634.4 1016.1 643.6 1019 654 1019C674.6 1019 684.9 1012.1 684.9 998.3C684.9 990.7 679.9 984 669.9 978.2L635.1 958.1C620.9 949.9 613.8 938.6 613.8 924.2C613.8 914 618 905.4 626.4 898.4C634.8 891.2 646.1 887.7 660.3 887.9C674.7 887.9 688 890.2 700.2 894.8C700.2 897.6 699.2 904.2 697.2 914.6C695.2 925 694.1 930.2 693.9 930.2C686.5 930.2 682.8 928.8 682.8 926V906.2ZM806.377 1017.2C794.777 1026.8 782.677 1031.6 770.077 1031.6C753.877 1031.6 745.777 1022.1 745.777 1003.1V905.6H727.177C724.377 905.6 722.977 901.7 722.977 893.9L747.877 889.7L755.677 856.1L767.077 852.5V891.2H802.477C802.477 900.8 801.077 905.6 798.277 905.6H767.077V1001.3C767.077 1011.5 770.977 1016.6 778.777 1016.6C784.577 1016.6 792.077 1013.8 801.277 1008.2C803.877 1010.6 805.577 1013.6 806.377 1017.2ZM891.162 887.6C910.362 887.6 926.062 893.7 938.262 905.9C950.662 917.9 956.862 935.5 956.862 958.7C956.862 981.9 950.562 999.9 937.962 1012.7C925.562 1025.3 909.462 1031.6 889.662 1031.6C869.862 1031.6 853.962 1025.4 841.962 1013C830.162 1000.4 824.262 982.7 824.262 959.9C824.262 936.9 830.662 919.1 843.462 906.5C856.262 893.9 872.162 887.6 891.162 887.6ZM847.662 958.7C847.662 978.1 851.562 992.9 859.362 1003.1C867.362 1013.3 877.762 1018.4 890.562 1018.4C903.362 1018.4 913.662 1013.3 921.462 1003.1C929.462 992.9 933.462 978.3 933.462 959.3C933.462 940.3 929.462 925.8 921.462 915.8C913.462 905.8 903.862 900.8 892.662 900.8C881.462 900.8 872.362 902.3 865.362 905.3C853.562 914.9 847.662 932.7 847.662 958.7ZM1028.7 910.1C1041.9 898.1 1055.3 890.5 1068.9 887.3C1073.5 892.5 1075.8 898.6 1075.8 905.6C1075.8 909.8 1061.8 912.8 1033.8 914.6C1030 925 1028.1 934.1 1028.1 941.9V1012.4L1061.7 1019C1061.7 1025 1060.3 1028 1057.5 1028L1017.9 1026.8L985.2 1028C982.4 1028 981 1025 981 1019L1006.8 1012.4V908.6H985.2C982.4 908.6 981 904.9 981 897.5C981 897.1 986.9 896 998.7 894.2C1010.7 892.2 1017.4 891.2 1018.8 891.2C1021.8 891.2 1024.7 897.1 1027.5 908.9L1028.7 910.1ZM1162.56 887.6C1176.96 887.6 1188.26 893.5 1196.46 905.3C1204.86 916.9 1209.06 931.1 1209.06 947.9V954.5C1183.86 958.7 1158.66 960.8 1133.46 960.8H1113.96V965C1113.96 981.4 1118.16 994.2 1126.56 1003.4C1134.96 1012.6 1145.46 1017.2 1158.06 1017.2C1170.86 1017.2 1183.26 1014.7 1195.26 1009.7C1197.86 1012.1 1199.56 1015.1 1200.36 1018.7C1187.16 1027.3 1171.56 1031.6 1153.56 1031.6C1135.56 1031.6 1120.56 1025.9 1108.56 1014.5C1096.76 1003.1 1090.86 986.1 1090.86 963.5C1090.86 940.7 1097.36 922.4 1110.36 908.6C1123.36 894.6 1140.76 887.6 1162.56 887.6ZM1139.76 903.5C1126.16 912.7 1117.86 928 1114.86 949.4C1138.06 949 1161.06 946.9 1183.86 943.1C1184.46 939.5 1184.76 936.1 1184.76 932.9C1184.76 923.3 1182.16 915.8 1176.96 910.4C1171.76 904.8 1164.16 902 1154.16 902C1148.76 902 1143.96 902.5 1139.76 903.5Z" fill="black"/>
<rect x="60" y="946" width="485" height="19" fill="black"/>
<rect x="1303" y="946" width="485" height="19" fill="black"/>
</svg>
